<svg xmlns="http://www.w3.org/2000/svg" xmlns:xlink="http://www.w3.org/1999/xlink" xmlns:serif="http://www.serif.com/" width="100%" height="100%" viewBox="0 0 234 52" xml:space="preserve" style="fill-rule:evenodd;clip-rule:evenodd;">
    <g transform="matrix(1,0,0,1,-15.625,-15.961)">
        <g transform="matrix(-0.474771,0.88011,-0.88011,-0.474771,106.454,27.8728)">
            <path d="M37.684,50.477L49.682,50.477L53.86,44.121L34.246,44.103L37.684,50.477Z" style="fill:rgb(132,189,0);fill-rule:nonzero;"></path>
        </g>
        <g transform="matrix(-0.475729,-0.879592,0.879592,-0.475729,10.3777,69.7795)">
            <path d="M29.097,45.258L36.708,45.258L16.984,15.151L13.549,21.501L29.097,45.258Z" style="fill:rgb(132,189,0);fill-rule:nonzero;"></path>
        </g>
        <g transform="matrix(1,0,0,-1,0,80.848)">
            <path d="M38.43,54.332L27.02,33.215L30.637,26.516L23.398,26.516L30.637,26.516L42.051,47.633L38.43,54.332Z" style="fill:rgb(132,189,0);fill-rule:nonzero;"></path>
        </g>
        <g transform="matrix(1,0,0,-1,0,38.617)">
            <path d="M36.344,15.961L43.586,15.961L39.965,22.656L32.723,22.656L36.344,15.961Z" style="fill:rgb(194,222,128);fill-rule:nonzero;"></path>
        </g>
        <g transform="matrix(1,0,0,-1,0,63.59)">
            <path d="M44.137,26.516L51.379,26.516L45.672,37.074L38.43,37.074L44.137,26.516Z" style="fill:rgb(194,222,128);fill-rule:nonzero;"></path>
        </g>
        <g transform="matrix(0.475102,0.879931,-0.879931,0.475102,57.0025,6.40693)">
            <path d="M16.618,55.996L24.231,55.996L29.644,45.969L22.029,45.973L16.618,55.996Z" style="fill:rgb(194,222,128);fill-rule:nonzero;"></path>
        </g>
        <g transform="matrix(1,0,0,-1,0,95.266)">
            <path d="M53.465,54.332L49.848,47.633L49.844,47.633L53.465,40.934L57.086,47.633L53.465,54.332Z" style="fill:rgb(132,189,0);fill-rule:nonzero;"></path>
        </g>
        <g transform="matrix(1,0,0,-1,0,101.965)">
            <path d="M42.051,47.633L53.465,47.633L49.848,54.332L45.672,54.332L42.051,47.633Z" style="fill:rgb(194,222,128);fill-rule:nonzero;"></path>
        </g>
        <g transform="matrix(1,0,0,-1,0,67.711)">
            <path d="M77.035,31.578L82.742,31.578L79.875,38.496L77.035,31.578ZM73.727,23.512L68.555,23.512L77.715,44.199L82.059,44.199L91.281,23.512L86.109,23.512L84.336,27.766L75.469,27.766L73.727,23.512Z" style="fill:rgb(83,86,90);fill-rule:nonzero;"></path>
        </g>
        <g transform="matrix(1,0,0,-1,0,68.125)">
            <path d="M98.641,44.613L103.371,44.613L103.371,30.754C103.371,28.684 105.086,27.559 107.805,27.559C110.555,27.559 112.266,28.684 112.266,30.754L112.266,44.613L116.965,44.613L116.965,30.367C116.965,26.172 113.301,23.512 107.805,23.512C102.336,23.512 98.641,26.172 98.641,30.367L98.641,44.613Z" style="fill:rgb(83,86,90);fill-rule:nonzero;"></path>
        </g>
        <g transform="matrix(1,0,0,-1,0,67.711)">
            <path d="M131.922,23.512L127.223,23.512L127.223,44.199L136.945,44.199C142.297,44.199 145.605,41.836 145.605,37.609L145.605,36.547C145.605,33.887 143.891,31.699 140.699,30.871L146.461,23.512L140.461,23.512L134.848,30.871L134.848,33.945L136.945,33.945C139.52,33.945 140.906,34.859 140.906,36.871L140.906,37.254C140.906,39.266 139.52,40.121 136.945,40.121L131.922,40.121L131.922,23.512Z" style="fill:rgb(83,86,90);fill-rule:nonzero;"></path>
        </g>
        <g transform="matrix(1,0,0,-1,0,67.711)">
            <path d="M155.715,44.199L171.406,44.199L171.406,40.121L160.414,40.121L160.414,36.012L169.574,36.012L169.574,31.992L160.414,31.992L160.414,27.559L171.676,27.559L171.676,23.512L155.715,23.512L155.715,44.199Z" style="fill:rgb(83,86,90);fill-rule:nonzero;"></path>
        </g>
        <g transform="matrix(1,0,0,-1,0,67.711)">
            <path d="M181.043,44.199L185.742,44.199L185.742,27.559L196.738,27.559L196.738,23.512L181.043,23.512L181.043,44.199Z" style="fill:rgb(83,86,90);fill-rule:nonzero;"></path>
        </g>
        <g transform="matrix(1,0,0,-1,0,67.711)">
            <path d="M204.098,37.758C204.098,41.953 207.938,44.613 213.258,44.613C218.609,44.613 222.391,42.043 222.391,38.523L222.391,36.516L217.723,36.516L217.723,38.172C217.723,39.617 215.918,40.563 213.258,40.563C210.629,40.563 208.824,39.441 208.824,37.402L208.824,30.34C208.824,28.27 210.629,27.176 213.258,27.176C215.918,27.176 217.723,28.121 217.723,29.57L217.723,31.402L222.391,31.402L222.391,29.215C222.391,25.699 218.609,23.098 213.258,23.098C207.938,23.098 204.098,25.785 204.098,29.984L204.098,37.758Z" style="fill:rgb(135,137,139);fill-rule:nonzero;"></path>
        </g>
        <g transform="matrix(1,0,0,-1,0,67.711)">
            <path d="M230.461,27.324L241.781,40.152L230.875,40.152L230.875,44.199L248.223,44.199L248.223,40.297L236.961,27.559L248.785,27.559L248.785,23.512L230.461,23.512L230.461,27.324Z" style="fill:rgb(135,137,139);fill-rule:nonzero;"></path>
        </g>
        <g transform="matrix(1,0,0,-1,0,120.579)">
            <path d="M77.633,57.962C77.633,57.419 77.516,56.934 77.289,56.509C77.07,56.079 76.762,55.712 76.367,55.399C75.969,55.095 75.496,54.868 74.945,54.712C74.402,54.556 73.805,54.477 73.148,54.477C72.492,54.477 71.887,54.556 71.336,54.712C70.793,54.868 70.324,55.095 69.93,55.399C69.531,55.712 69.227,56.079 69.008,56.509C68.789,56.934 68.68,57.419 68.68,57.962L68.68,62.618C68.68,63.157 68.789,63.638 69.008,64.056C69.227,64.481 69.531,64.845 69.93,65.149C70.324,65.462 70.797,65.696 71.352,65.852C71.914,66.016 72.523,66.102 73.18,66.102C73.844,66.102 74.449,66.028 74.992,65.884C75.531,65.735 76,65.528 76.398,65.259C76.793,64.985 77.094,64.665 77.305,64.29C77.523,63.923 77.633,63.524 77.633,63.087L77.633,62.665L76.523,62.665L76.523,62.868C76.523,63.181 76.438,63.47 76.273,63.743C76.117,64.013 75.891,64.235 75.602,64.415C75.309,64.591 74.953,64.731 74.539,64.837C74.133,64.938 73.68,64.993 73.18,64.993C72.68,64.993 72.219,64.934 71.805,64.821C71.387,64.704 71.031,64.54 70.742,64.321C70.449,64.102 70.219,63.829 70.055,63.509C69.898,63.184 69.82,62.813 69.82,62.399L69.82,58.181C69.82,57.751 69.898,57.376 70.055,57.056C70.219,56.731 70.449,56.462 70.742,56.243C71.031,56.032 71.383,55.872 71.789,55.759C72.203,55.641 72.656,55.587 73.148,55.587C73.637,55.587 74.086,55.641 74.492,55.759C74.906,55.872 75.262,56.032 75.555,56.243C75.844,56.462 76.07,56.731 76.227,57.056C76.391,57.376 76.477,57.751 76.477,58.181L76.477,59.493L73.398,59.493L73.398,60.587L77.633,60.587L77.633,57.962Z" style="fill:rgb(83,86,90);fill-rule:nonzero;stroke:rgb(83,86,90);stroke-width:0.44px;"></path>
        </g>
        <g transform="matrix(1,0,0,-1,0,120.578)">
            <path d="M89.508,54.695L88.352,54.695L88.352,65.883L93.148,65.883C93.793,65.883 94.375,65.805 94.898,65.648C95.43,65.5 95.871,65.289 96.227,65.008C96.59,64.726 96.871,64.375 97.07,63.961C97.266,63.555 97.367,63.086 97.367,62.555L97.367,61.914C97.367,60.984 97.074,60.265 96.492,59.758C95.906,59.258 95.074,58.918 93.992,58.742L97.898,54.695L96.305,54.695L92.43,58.726L92.43,59.695L92.664,59.695C93.227,59.695 93.727,59.734 94.164,59.82C94.602,59.902 94.969,60.039 95.273,60.226C95.586,60.414 95.82,60.664 95.977,60.976C96.133,61.289 96.211,61.672 96.211,62.133L96.211,62.351C96.211,63.195 95.949,63.805 95.43,64.18C94.906,64.562 94.148,64.758 93.148,64.758L89.508,64.758L89.508,54.695Z" style="fill:rgb(83,86,90);fill-rule:nonzero;stroke:rgb(83,86,90);stroke-width:0.44px;"></path>
        </g>
        <g transform="matrix(1,0,0,-1,0,120.579)">
            <path d="M107.645,62.618C107.645,63.169 107.762,63.653 108.004,64.071C108.254,64.497 108.59,64.86 109.02,65.165C109.445,65.477 109.941,65.712 110.504,65.868C111.074,66.024 111.695,66.102 112.363,66.102C113.008,66.102 113.613,66.024 114.176,65.868C114.746,65.712 115.246,65.477 115.676,65.165C116.102,64.86 116.434,64.497 116.676,64.071C116.926,63.653 117.051,63.169 117.051,62.618L117.051,57.962C117.051,57.419 116.926,56.934 116.676,56.509C116.434,56.079 116.102,55.712 115.676,55.399C115.246,55.095 114.746,54.868 114.176,54.712C113.613,54.556 113.008,54.477 112.363,54.477C111.695,54.477 111.074,54.556 110.504,54.712C109.941,54.868 109.445,55.095 109.02,55.399C108.59,55.712 108.254,56.079 108.004,56.509C107.762,56.934 107.645,57.419 107.645,57.962L107.645,62.618ZM108.785,58.181C108.785,57.751 108.879,57.376 109.066,57.056C109.254,56.731 109.508,56.462 109.832,56.243C110.164,56.032 110.543,55.872 110.973,55.759C111.41,55.641 111.871,55.587 112.363,55.587C112.852,55.587 113.309,55.641 113.738,55.759C114.176,55.872 114.551,56.032 114.863,56.243C115.184,56.462 115.441,56.731 115.629,57.056C115.816,57.376 115.91,57.751 115.91,58.181L115.91,62.399C115.91,62.825 115.816,63.2 115.629,63.524C115.441,63.845 115.184,64.11 114.863,64.321C114.551,64.54 114.176,64.704 113.738,64.821C113.309,64.934 112.852,64.993 112.363,64.993C111.871,64.993 111.41,64.934 110.973,64.821C110.543,64.704 110.164,64.54 109.832,64.321C109.508,64.11 109.254,63.845 109.066,63.524C108.879,63.2 108.785,62.825 108.785,62.399L108.785,58.181Z" style="fill:rgb(83,86,90);fill-rule:nonzero;stroke:rgb(83,86,90);stroke-width:0.44px;"></path>
        </g>
        <g transform="matrix(1,0,0,-1,0,120.797)">
            <path d="M127.797,66.102L128.953,66.102L128.953,58.399C128.953,57.555 129.25,56.906 129.844,56.461C130.438,56.024 131.25,55.805 132.281,55.805C133.32,55.805 134.141,56.024 134.734,56.461C135.328,56.906 135.625,57.555 135.625,58.399L135.625,66.102L136.781,66.102L136.781,58.18C136.781,57.649 136.672,57.168 136.453,56.742C136.234,56.313 135.926,55.945 135.531,55.633C135.145,55.328 134.676,55.094 134.125,54.93C133.57,54.774 132.957,54.695 132.281,54.695C131.613,54.695 131.004,54.774 130.453,54.93C129.898,55.094 129.426,55.328 129.031,55.633C128.645,55.945 128.344,56.313 128.125,56.742C127.906,57.168 127.797,57.649 127.797,58.18L127.797,66.102Z" style="fill:rgb(83,86,90);fill-rule:nonzero;stroke:rgb(83,86,90);stroke-width:0.44px;"></path>
        </g>
        <g transform="matrix(1,0,0,-1,0,120.578)">
            <path d="M147.652,65.883L152.449,65.883C153.094,65.883 153.676,65.797 154.199,65.633C154.73,65.465 155.172,65.23 155.527,64.93C155.891,64.625 156.172,64.262 156.371,63.836C156.566,63.406 156.668,62.93 156.668,62.398L156.668,61.633C156.668,61.101 156.566,60.621 156.371,60.195C156.172,59.765 155.891,59.402 155.527,59.101C155.172,58.797 154.73,58.562 154.199,58.398C153.676,58.23 153.094,58.148 152.449,58.148L148.809,58.148L148.809,54.695L147.652,54.695L147.652,65.883ZM152.449,59.258C153.449,59.258 154.207,59.476 154.73,59.914C155.25,60.351 155.512,60.992 155.512,61.836L155.512,62.195C155.512,63.039 155.25,63.672 154.73,64.101C154.207,64.539 153.449,64.758 152.449,64.758L148.809,64.758L148.809,59.258L152.449,59.258Z" style="fill:rgb(83,86,90);fill-rule:nonzero;stroke:rgb(83,86,90);stroke-width:0.44px;"></path>
        </g>
    </g>
</svg>