<?xml version="1.0" encoding="utf-8"?>
<!-- Generator: Adobe Illustrator 25.0.0, SVG Export Plug-In . SVG Version: 6.00 Build 0)  -->
<svg version="1.1" id="Layer_1" xmlns="http://www.w3.org/2000/svg" xmlns:xlink="http://www.w3.org/1999/xlink" x="0px" y="0px"
	 viewBox="0 0 1600 457" style="enable-background:new 0 0 1600 457;" xml:space="preserve">
<path d="M1599.7,112.8C1595,49.8,1542.3,0,1478.1,0H967v0h-31.6c-1.2,0-2.3,0-3.5,0h-2.4C862.2,0,807.6,54.6,807.6,122v0h0.1
	c-0.1,1.9-0.1,3.9-0.1,5.9v158.8c-4,20.2-22.2,35.5-44,35.5c-5.2,0-10.1-0.9-14.8-2.6L281.9,38.1c-31.2-18.8-69-31.5-108.3-38
	c-3.8,0-7.8,0-12.2-0.1c-0.7,0-1.4,0-2.1,0v0h0c-47.3,0-89.8,20.6-119,53.4c-1.8,1.9-2.8,3-2.8,3h0l0.1,0C14.2,84.3,0,120.2,0,159.5
	V457h0c88,0,159.4-71.4,159.4-159.4V192c0-21.1,15.3-38.1,34.2-38.1c2.4,0,4.7,0.3,6.9,0.8l430.2,259.4
	c49.3,29.7,114.9,44.2,176.9,42.7v0.2h0c88,0,159.4-71.4,159.4-159.4V143.2c1.9-7.4,9.9-19.2,40.1-21.2h403.4
	c29.7,2.1,30,27.5,30,27.5s-0.3,25.3-30,27.5h-272c-67.3,0-121.9,54.6-121.9,121.9v0h461.5c66.4,0,120.4-53.1,121.9-119.1h0v-2.8v0
	v-55v0v-9.2H1599.7z"/>
</svg>
