<?xml version="1.0" encoding="utf-8"?>
<!-- Generator: Adobe Illustrator 25.0.0, SVG Export Plug-In . SVG Version: 6.00 Build 0)  -->
<svg version="1.1" xmlns="http://www.w3.org/2000/svg" xmlns:xlink="http://www.w3.org/1999/xlink" x="0px" y="0px"
	 viewBox="0 0 1487.1 402.8" style="enable-background:new 0 0 1487.1 402.8;" xml:space="preserve">
<style type="text/css">
	.st0{fill:#FFFFFF;}
	.st1{display:none;fill:#FFFFFF;}
	.st2{fill:none;stroke:#000000;stroke-miterlimit:10;}
	.st3{fill:none;stroke:#000000;stroke-width:0.7177;stroke-miterlimit:10;}
	.st4{fill:none;stroke:#000000;stroke-width:0.9272;stroke-miterlimit:10;}
	.st5{fill:none;stroke:#000000;stroke-width:1.0088;stroke-miterlimit:10;}
	.st6{fill:none;stroke:#000000;stroke-width:2.6439;stroke-miterlimit:10;}
	.st7{fill:none;stroke:#000000;stroke-width:5.5435;stroke-miterlimit:10;}
	.st8{fill:none;stroke:#000000;stroke-width:3.6533;stroke-miterlimit:10;}
	.st9{fill:none;stroke:#000000;stroke-width:2.7411;stroke-miterlimit:10;}
</style>
<g id="Layer_1">
	<g>
		<path d="M5323.5,2111.7c-11.2-151.3-137.6-270.7-291.8-270.7l-1226.5,0v-0.1h-75.8c-2.8,0-5.6,0-8.4,0.1h-5.8
			c-161.6,0-292.6,131-292.6,292.6l0,0h0.3c-0.2,4.7-0.3,9.4-0.3,14.1l0,381.2c-9.7,48.6-53.3,85.2-105.7,85.2
			c-12.5,0-24.4-2.2-35.4-6.1l-1120.6-675.7c-74.9-45.2-165.6-75.6-259.8-91.1c-9.2,0-18.8-0.1-29.2-0.1c-1.7,0-3.3,0-5,0v0h0
			c-113.6,0-215.6,49.5-285.7,128.1c-4.4,4.6-6.6,7.3-6.6,7.3h0l0.2,0.1c-56.4,66.7-90.5,152.9-90.5,247.1l0,714.1h0
			c211.3,0,382.6-171.3,382.6-382.6l0-253.4c0-50.5,36.7-91.5,82-91.5c5.7,0,11.2,0.7,16.6,2l1032.4,622.5
			c118.3,71.3,275.8,106.1,424.7,102.5v0.4h0c211.3,0,382.6-171.3,382.6-382.6v-370.5c4.7-17.9,23.7-46.1,96.3-50.8l968.2,0
			c71.3,5.1,72,65.9,72,65.9s-0.7,60.8-72,65.9l-652.9,0c-161.6,0-292.6,131-292.6,292.6v0l1107.5,0
			c159.3,0,288.9-127.4,292.5-285.8h0.1v-6.8v0v-131.9v0v-22H5323.5z"/>
		<g>
			<path d="M2357.6,3112.6c-7.7-9.4-19.3-15.4-32.4-15.4h-1.3h-23.8l-318.1,0v-0.2h-28.4c-29.6,0-53.6,24-53.6,53.6l0,115.6
				c-2.5,7.4-9.5,12.7-17.7,12.7c-3.1,0-5.9-0.8-8.5-2.1l-244.4-158.3c-16.3-10.6-36.1-17.7-56.6-21.3c-2,0-4.1,0-6.4,0h0
				c-1.4,0-2.8,0-4.1,0.1c-0.2,0-0.4,0-0.6,0c-1,0.1-2,0.1-3,0.2c-22.9,2.1-43,13.6-56.5,30.6c-0.4,0.4-0.6,0.7-0.6,0.7h0l0,0
				c-10.8,13.9-17.3,31.3-17.3,50.3v174.7h0c45.3,0,82-36.7,82-82v-66.9c0-10.3,8.4-18.7,18.7-18.7c3.1,0,6,0.8,8.6,2.2l218,141.2
				c24.6,16,57,24.1,88.2,24v0.1h28.4c29.6,0,53.6-24,53.6-53.6v-121.5c0.7-4.4,4.7-13,25.4-13l267.3,0c18.4,0,23.9,6.5,25.4,11.1
				l0,96.6c-1.3,4.6-6.4,11.8-25.4,11.8l-174.1,0c-19.1,0-24-7.4-25.1-11.9v-31.4c0-24.7-20-44.8-44.8-44.8H2007V3309
				c0,24.7,20,44.8,44.8,44.8h23.8v0h229.6h18.7c24.7,0,44.8-20,44.8-44.8v-167C2368.6,3130.7,2364.4,3120.5,2357.6,3112.6z"/>
			<path d="M2879.4,3097.1h-257.2h-13.5h-0.7c-37.5,0-67.8,30.4-67.8,67.8v0.7c0,0,0,0,0,0l0,0h0l0,188.2c45.3,0,82-36.7,82-82
				v-94.2c1-4.2,5.1-10.8,20.7-11.9l207.6,0c15.3,1.2,15.4,15.4,15.4,15.4s-0.2,14.2-15.4,15.4h-134.2c-37.8,0-68.5,30.7-68.5,68.5
				l231.7,0c37.3,0,67.6-29.8,68.5-66.9h0v-32.5l0,0v-5.1h-0.2C2945,3125.1,2915.5,3097.1,2879.4,3097.1z"/>
			<path d="M3041.9,3097.1h-2.9c-37.5,0-67.8,30.4-67.8,67.8v188.7c45.3,0,82-36.7,82-82l0-94.8c1.5-4.6,6.9-11.2,25.4-11.2H3227
				c37.8,0,68.5-30.7,68.5-68.5l-242.3,0H3041.9z"/>
			<path d="M3676.5,3125.9c-4.5-16.6-19.6-28.8-37.6-28.8h-4.2c0,0,0,0,0,0H3611v0h-254.1c-21.5,0-39,17.4-39,39v29.5h267.7
				c18.4,0,23.9,6.5,25.4,11.1l0,96.6c-1.3,4.6-6.4,11.8-25.4,11.8h25.4l-199.5,0c-19.1,0-24-7.4-25.1-11.9v-31.4
				c0-24.7-20-44.8-44.8-44.8h-23.8l0,111.9c0,24.7,20,44.8,44.8,44.8h23.8v0H3611h5h18.7c24.7,0,44.8-20,44.8-44.8v-167
				C3679.5,3136.2,3678.4,3130.9,3676.5,3125.9z"/>
			<path d="M4040.9,3097.2l-257.3,0v-0.1h-14.2c-37.5,0-67.8,30.4-67.8,67.8v188.9c45.3,0,82-36.7,82-82V3178
				c0.8-4.1,4.7-11.2,20.8-12.3H4012c11,0.9,14.2,8.5,15.1,12.7c-0.9,4.2-4,11.8-15.1,12.7h-134.2c-37.8,0-68.5,30.7-68.5,68.5
				l202.7,0c11.1,0.9,14.2,8.7,15.1,12.8c-0.9,4.2-3.9,12-15.1,12.8l-153.8,0c-37.8,0-68.5,30.7-68.5,68.5l0,0l251.3,0
				c36.5,0,66.3-28.6,68.4-64.6h0.1v-23.8c0-14.1-3.6-27.4-9.8-39c5.6-9.2,9-19.8,9.7-31.2h0.1v-4.2v-30.5h-0.2
				C4106.6,3125.1,4077,3097.2,4040.9,3097.2z"/>
			<path d="M4387.4,3285.1l-173.8,0v-106c0-45.3-36.7-82-82-82l0,0v188.7c0,37.5,30.4,67.8,67.8,67.8h2.9h11.3l242.3,0
				C4455.9,3315.8,4425.2,3285.1,4387.4,3285.1z"/>
			<path d="M4816.9,3097.1h-257.3v-0.1h-14.2c-37.5,0-67.8,30.4-67.8,67.8v106.8c0,44.1,34.8,80,78.4,81.9v0.1h3.6h0h257.3
				c37.8,0,68.5-30.7,68.5-68.5l0,0l-300.3,0c-20.1,0-24.6-7.9-25.5-12.5v-94.8c0.8-4.1,4.7-11.2,20.8-12.3h207.6
				c11,0.9,14.2,8.5,15.1,12.7c-0.9,4.2-4,11.8-15.1,12.7h-134.2c-37.8,0-68.5,30.7-68.5,68.5v0l231.7,0c35.4,0,64.6-26.9,68.1-61.4
				h0.4v-7.1v0v-25.4l0,0v-5.1h-0.2C4882.6,3125.1,4853,3097.1,4816.9,3097.1z"/>
			<path d="M5254.4,3097.2c-1.5-0.1-2.9-0.1-4.4-0.1v0.1h-95.4c-9.8,0-19.1,2.1-27.6,5.8c-8.4-3.7-17.6-5.7-27.4-5.7h-8.5
				c-1.7-0.1-3.4-0.2-5.1-0.2v0.2h-110.4c-10.5,0-20.4,2.4-29.3,6.6c-9.4-4.3-19.8-6.7-30.8-6.7h-8.5v188.7
				c0,37.5,30.4,67.8,67.8,67.8h14.2v-174.6c1.7-5.7,7.1-13.2,23.7-13.2h48.8c20.8,0,24,11.8,24.4,17.1v-17.1h0.1v187.8
				c41,0,74.3-33.3,74.3-74.3v-100.1c1.2-4.9,5.1-11.6,16.8-13.5h49c20.1,0.3,23.2,11.9,23.6,17v-17h0.1v187.9
				c41,0,74.3-33.3,74.3-74.3v-107.9c0-18.4-6.7-35.3-17.8-48.2C5294.3,3107.7,5275.5,3097.6,5254.4,3097.2z"/>
			<path d="M5086.1,3182.8v2.5C5086.1,3185.3,5086.2,3184.3,5086.1,3182.8z"/>
			<path d="M5250,3182.7v2.5C5250,3185.2,5250.1,3184.2,5250,3182.7z"/>
		</g>
	</g>
	<g>
		<path class="st0" d="M5323.5,3999.1c-11.2-151.3-137.6-270.7-291.8-270.7l-1226.5,0v-0.1h-75.8c-2.8,0-5.6,0-8.4,0.1h-5.8
			c-161.6,0-292.6,131-292.6,292.6v0h0.3c-0.2,4.7-0.3,9.4-0.3,14.1l0,381.2c-9.7,48.6-53.3,85.2-105.7,85.2
			c-12.5,0-24.4-2.2-35.4-6.1l-1120.6-675.7c-74.9-45.2-165.6-75.6-259.8-91.1c-9.2,0-18.8-0.1-29.2-0.1c-1.7,0-3.3,0-5,0v0h0
			c-113.6,0-215.6,49.5-285.7,128.1c-4.4,4.6-6.6,7.3-6.6,7.3h0l0.2,0.1c-56.4,66.7-90.5,152.9-90.5,247.1l0,714.1h0
			c211.3,0,382.6-171.3,382.6-382.6l0-253.4c0-50.5,36.7-91.5,82-91.5c5.7,0,11.2,0.7,16.6,2l1032.4,622.5
			c118.3,71.3,275.8,106.1,424.7,102.5v0.4h0c211.3,0,382.6-171.3,382.6-382.6v-370.5c4.7-17.9,23.7-46.1,96.3-50.8l968.2,0
			c71.3,5.1,72,65.9,72,65.9s-0.7,60.8-72,65.9l-652.9,0c-161.6,0-292.6,131-292.6,292.6l0,0l1107.5,0
			c159.3,0,288.9-127.4,292.5-285.8h0.1v-6.8v0V4021v0v-22H5323.5z"/>
		<g>
			<path class="st0" d="M2357.6,5000c-7.7-9.4-19.3-15.4-32.4-15.4h-1.3h-23.8H1982v-0.2h-28.4c-29.6,0-53.6,24-53.6,53.6l0,115.6
				c-2.5,7.4-9.5,12.7-17.7,12.7c-3.1,0-5.9-0.8-8.5-2.1l-244.4-158.3c-16.3-10.6-36.1-17.7-56.6-21.3c-2,0-4.1,0-6.4,0h0
				c-1.4,0-2.8,0-4.1,0.1c-0.2,0-0.4,0-0.6,0c-1,0.1-2,0.1-3,0.2c-22.9,2.1-43,13.6-56.5,30.6c-0.4,0.4-0.6,0.7-0.6,0.7h0l0,0
				c-10.8,13.9-17.3,31.3-17.3,50.3v174.7h0c45.3,0,82-36.7,82-82v-66.9c0-10.3,8.4-18.7,18.7-18.7c3.1,0,6,0.8,8.6,2.2l218,141.2
				c24.6,16,57,24.1,88.2,24v0.1h28.4c29.6,0,53.6-24,53.6-53.6v-121.5c0.7-4.4,4.7-13,25.4-13h267.3c18.4,0,23.9,6.5,25.4,11.1
				l0,96.6c-1.3,4.6-6.4,11.8-25.4,11.8h-174.1c-19.1,0-24-7.4-25.1-11.9v-31.4c0-24.7-20-44.8-44.8-44.8H2007v111.9
				c0,24.7,20,44.8,44.8,44.8h23.8v0l229.6,0h18.7c24.7,0,44.8-20,44.8-44.8v-167C2368.6,5018.1,2364.4,5007.8,2357.6,5000z"/>
			<path class="st0" d="M2879.4,4984.5l-257.2,0h-13.5h-0.7c-37.5,0-67.8,30.4-67.8,67.8v0.7c0,0,0,0,0,0l0,0h0l0,188.2
				c45.3,0,82-36.7,82-82v-94.2c1-4.2,5.1-10.8,20.7-11.9h207.6c15.3,1.2,15.4,15.4,15.4,15.4s-0.2,14.2-15.4,15.4h-134.2
				c-37.8,0-68.5,30.7-68.5,68.5h231.7c37.3,0,67.6-29.8,68.5-66.9h0V5053l0,0v-5.1h-0.2C2945,5012.4,2915.5,4984.5,2879.4,4984.5z"
				/>
			<path class="st0" d="M3041.9,4984.5h-2.9c-37.5,0-67.8,30.4-67.8,67.8V5241c45.3,0,82-36.7,82-82l0-94.8
				c1.5-4.6,6.9-11.2,25.4-11.2H3227c37.8,0,68.5-30.7,68.5-68.5h-242.3H3041.9z"/>
			<path class="st0" d="M3676.5,5013.3c-4.5-16.6-19.6-28.8-37.6-28.8h-4.2c0,0,0,0,0,0H3611v0l-254.1,0c-21.5,0-39,17.4-39,39v29.5
				l267.7,0c18.4,0,23.9,6.5,25.4,11.1l0,96.6c-1.3,4.6-6.4,11.8-25.4,11.8h25.4h-199.5c-19.1,0-24-7.4-25.1-11.9v-31.4
				c0-24.7-20-44.8-44.8-44.8h-23.8l0,111.9c0,24.7,20,44.8,44.8,44.8h23.8v0l224.6,0h5h18.7c24.7,0,44.8-20,44.8-44.8v-167
				C3679.5,5023.6,3678.4,5018.2,3676.5,5013.3z"/>
			<path class="st0" d="M4040.9,4984.6h-257.3v-0.1h-14.2c-37.5,0-67.8,30.4-67.8,67.8v188.9c45.3,0,82-36.7,82-82v-93.7
				c0.8-4.1,4.7-11.2,20.8-12.3H4012c11,0.9,14.2,8.5,15.1,12.7c-0.9,4.2-4,11.8-15.1,12.7l-134.2,0c-37.8,0-68.5,30.7-68.5,68.5
				H4012c11.1,0.9,14.2,8.7,15.1,12.8c-0.9,4.2-3.9,12-15.1,12.8h-153.8c-37.8,0-68.5,30.7-68.5,68.5l0,0h251.3
				c36.5,0,66.3-28.6,68.4-64.6h0.1v-23.8c0-14.1-3.6-27.4-9.8-39c5.6-9.2,9-19.8,9.7-31.2h0.1v-4.2v-30.5h-0.2
				C4106.6,5012.5,4077,4984.6,4040.9,4984.6z"/>
			<path class="st0" d="M4387.4,5172.5h-173.8v-106c0-45.3-36.7-82-82-82l0,0v188.7c0,37.5,30.4,67.8,67.8,67.8h2.9h11.3h242.3
				C4455.9,5203.2,4425.2,5172.5,4387.4,5172.5z"/>
			<path class="st0" d="M4816.9,4984.5l-257.3,0v-0.1h-14.2c-37.5,0-67.8,30.4-67.8,67.8V5159c0,44.1,34.8,80,78.4,81.9v0.1h3.6h0
				h257.3c37.8,0,68.5-30.7,68.5-68.5l0,0h-300.3c-20.1,0-24.6-7.9-25.5-12.5v-94.8c0.8-4.1,4.7-11.2,20.8-12.3l207.6,0
				c11,0.9,14.2,8.5,15.1,12.7c-0.9,4.2-4,11.8-15.1,12.7h-134.2c-37.8,0-68.5,30.7-68.5,68.5v0h231.7c35.4,0,64.6-26.9,68.1-61.4
				h0.4v-7.1l0,0V5053l0,0v-5.1h-0.2C4882.6,5012.4,4853,4984.5,4816.9,4984.5z"/>
			<path class="st0" d="M5254.4,4984.5c-1.5-0.1-2.9-0.1-4.4-0.1v0.1h-95.4c-9.8,0-19.1,2.1-27.6,5.8c-8.4-3.7-17.6-5.7-27.4-5.7
				h-8.5c-1.7-0.1-3.4-0.2-5.1-0.2v0.2h-110.4c-10.5,0-20.4,2.4-29.3,6.6c-9.4-4.3-19.8-6.7-30.8-6.7h-8.5v188.7
				c0,37.5,30.4,67.8,67.8,67.8h14.2v-174.6c1.7-5.7,7.1-13.2,23.7-13.2h48.8c20.8,0,24,11.8,24.4,17.1v-17.1h0.1v187.8
				c41,0,74.3-33.3,74.3-74.3v-100.1c1.2-4.9,5.1-11.6,16.8-13.5h49c20.1,0.3,23.2,11.9,23.6,17v-17h0.1v187.9
				c41,0,74.3-33.3,74.3-74.3v-107.9c0-18.4-6.7-35.3-17.8-48.2C5294.3,4995,5275.5,4985,5254.4,4984.5z"/>
			<path class="st0" d="M5086.1,5070.1v2.5C5086.1,5072.6,5086.2,5071.6,5086.1,5070.1z"/>
			<path class="st0" d="M5250,5070v2.5C5250,5072.5,5250.1,5071.5,5250,5070z"/>
		</g>
	</g>
	<g>
		<path d="M7400.9,1845.5c-7.7-9.4-19.3-15.4-32.4-15.4h-1.3h-23.8l-318.1,0v-0.2h-28.4c-29.6,0-53.6,24-53.6,53.6v115.6
			c-2.5,7.4-9.5,12.7-17.7,12.7c-3.1,0-5.9-0.8-8.5-2.1l-244.4-158.3c-16.3-10.6-36.1-17.7-56.6-21.3c-2,0-4.1,0-6.4,0l0,0
			c-1.4,0-2.8,0-4.1,0.1c-0.2,0-0.4,0-0.6,0c-1,0.1-2,0.1-3,0.2c-22.9,2.1-43,13.6-56.5,30.6c-0.4,0.4-0.6,0.7-0.6,0.7h0l0,0
			c-10.8,13.9-17.3,31.3-17.3,50.3v174.7l0,0c45.3,0,82-36.7,82-82v-66.9c0-10.3,8.4-18.7,18.7-18.7c3.1,0,6,0.8,8.6,2.2l218,141.2
			c24.6,16,57,24.1,88.2,24v0.1h28.4c29.6,0,53.6-24,53.6-53.6v-121.5c0.7-4.4,4.7-13,25.4-13l267.3,0c18.4,0,23.9,6.5,25.4,11.1
			v96.6c-1.3,4.6-6.4,11.8-25.4,11.8l-174.1,0c-19.1,0-24-7.4-25.1-11.9v-31.4c0-24.7-20-44.8-44.8-44.8h-23.8l0,111.9
			c0,24.7,20,44.8,44.8,44.8h23.8v0l229.6,0h18.7c24.7,0,44.8-20,44.8-44.8v-167C7412,1863.6,7407.8,1853.4,7400.9,1845.5z"/>
		<path d="M7922.7,1830l-257.2,0H7652h-0.7c-37.5,0-67.8,30.4-67.8,67.8v0.7c0,0,0,0,0,0l0,0h0v188.2c45.3,0,82-36.7,82-82v-94.2
			c1-4.2,5.1-10.8,20.7-11.9l207.6,0c15.3,1.2,15.4,15.4,15.4,15.4s-0.2,14.2-15.4,15.4h-134.2c-37.8,0-68.5,30.7-68.5,68.5l231.7,0
			c37.3,0,67.6-29.8,68.5-66.9h0v-32.5l0,0v-5.1h-0.2C7988.4,1858,7958.8,1830,7922.7,1830z"/>
		<path d="M8085.3,1830h-2.9c-37.5,0-67.8,30.4-67.8,67.8v188.7c45.3,0,82-36.7,82-82v-94.8c1.5-4.6,6.9-11.2,25.4-11.2h148.4
			c37.8,0,68.5-30.7,68.5-68.5l-242.3,0H8085.3z"/>
		<path d="M8719.9,1858.8c-4.5-16.6-19.6-28.8-37.6-28.8h-4.2c0,0,0,0,0,0h-23.8v0l-254.1,0c-21.5,0-39,17.4-39,39v29.5l267.7,0
			c18.4,0,23.9,6.5,25.4,11.1v96.6c-1.3,4.6-6.4,11.8-25.4,11.8h25.4l-199.5,0c-19.1,0-24-7.4-25.1-11.9v-31.4
			c0-24.7-20-44.8-44.8-44.8h-23.8l0,111.9c0,24.7,20,44.8,44.8,44.8h23.8v0h224.6h5h18.7c24.7,0,44.8-20,44.8-44.8v-167
			C8722.9,1869.1,8721.8,1863.8,8719.9,1858.8z"/>
		<path d="M9084.3,1830.1l-257.3,0v-0.1h-14.2c-37.5,0-67.8,30.4-67.8,67.8v188.9c45.3,0,82-36.7,82-82v-93.7
			c0.8-4.1,4.7-11.2,20.8-12.3l207.6,0c11,0.9,14.2,8.5,15.1,12.7c-0.9,4.2-4,11.8-15.1,12.7l-134.2,0c-37.8,0-68.5,30.7-68.5,68.5
			l202.7,0c11.1,0.9,14.2,8.7,15.1,12.8c-0.9,4.2-3.9,12-15.1,12.8l-153.8,0c-37.8,0-68.5,30.7-68.5,68.5l0,0l251.3,0
			c36.5,0,66.3-28.6,68.4-64.6h0.1v-23.8c0-14.1-3.6-27.4-9.8-39c5.6-9.2,9-19.8,9.7-31.2h0.1v-4.2v-30.5h-0.2
			C9150,1858,9120.4,1830.1,9084.3,1830.1z"/>
		<path d="M9430.8,2018l-173.8,0v-106c0-45.3-36.7-82-82-82l0,0v188.7c0,37.5,30.4,67.8,67.8,67.8h2.9h11.3h242.3
			C9499.3,2048.7,9468.6,2018,9430.8,2018z"/>
		<path d="M9860.3,1830l-257.3,0v-0.1h-14.2c-37.5,0-67.8,30.4-67.8,67.8v106.8c0,44.1,34.8,80,78.4,81.9v0.1h3.6l0,0l257.3,0
			c37.8,0,68.5-30.7,68.5-68.5l0,0l-300.3,0c-20.1,0-24.6-7.9-25.5-12.5v-94.8c0.8-4.1,4.7-11.2,20.8-12.3h207.6
			c11,0.9,14.2,8.5,15.1,12.7c-0.9,4.2-4,11.8-15.1,12.7h-134.2c-37.8,0-68.5,30.7-68.5,68.5v0l231.7,0c35.4,0,64.6-26.9,68.1-61.4
			h0.4v-7.1v0v-25.4l0,0v-5.1h-0.2C9926,1858,9896.4,1830,9860.3,1830z"/>
		<path d="M10297.8,1830.1c-1.5-0.1-2.9-0.1-4.4-0.1v0.1l-95.4,0c-9.8,0-19.1,2.1-27.6,5.8c-8.4-3.7-17.6-5.7-27.4-5.7h-8.5
			c-1.7-0.1-3.4-0.2-5.1-0.2v0.2l-110.4,0c-10.5,0-20.4,2.4-29.3,6.6c-9.4-4.3-19.8-6.7-30.8-6.7h-8.5v188.7
			c0,37.5,30.4,67.8,67.8,67.8h14.2l0-174.6c1.7-5.7,7.1-13.2,23.7-13.2h48.8c20.8,0,24,11.8,24.4,17.1v-17.1h0.1v187.8
			c41,0,74.3-33.3,74.3-74.3v-100.1c1.2-4.9,5.1-11.6,16.8-13.5h49c20.1,0.3,23.2,11.9,23.6,17v-17h0.1v187.9
			c41,0,74.3-33.3,74.3-74.3v-107.9c0-18.4-6.7-35.3-17.8-48.2C10337.6,1840.6,10318.9,1830.6,10297.8,1830.1z"/>
		<path d="M10129.5,1915.7v2.5C10129.5,1918.2,10129.6,1917.2,10129.5,1915.7z"/>
		<path d="M10293.3,1915.6v2.5C10293.3,1918.1,10293.5,1917.1,10293.3,1915.6z"/>
	</g>
	<g>
		<path class="st0" d="M7400.9,2751.7c-7.7-9.4-19.3-15.4-32.4-15.4h-1.3h-23.8l-318.1,0v-0.2h-28.4c-29.6,0-53.6,24-53.6,53.6
			v115.6c-2.5,7.4-9.5,12.7-17.7,12.7c-3.1,0-5.9-0.8-8.5-2.1l-244.4-158.3c-16.3-10.6-36.1-17.7-56.6-21.3c-2,0-4.1,0-6.4,0l0,0
			c-1.4,0-2.8,0-4.1,0.1c-0.2,0-0.4,0-0.6,0c-1,0.1-2,0.1-3,0.2c-22.9,2.1-43,13.6-56.5,30.6c-0.4,0.4-0.6,0.7-0.6,0.7h0l0,0
			c-10.8,13.9-17.3,31.3-17.3,50.3v174.7l0,0c45.3,0,82-36.7,82-82V2844c0-10.3,8.4-18.7,18.7-18.7c3.1,0,6,0.8,8.6,2.2l218,141.2
			c24.6,16,57,24.1,88.2,24v0.1h28.4c29.6,0,53.6-24,53.6-53.6v-121.5c0.7-4.4,4.7-13,25.4-13l267.3,0c18.4,0,23.9,6.5,25.4,11.1
			v96.6c-1.3,4.6-6.4,11.8-25.4,11.8H7144c-19.1,0-24-7.4-25.1-11.9V2881c0-24.7-20-44.8-44.8-44.8h-23.8l0,111.9
			c0,24.7,20,44.8,44.8,44.8h23.8v0l229.6,0h18.7c24.7,0,44.8-20,44.8-44.8v-167C7412,2769.8,7407.8,2759.6,7400.9,2751.7z"/>
		<path class="st0" d="M7922.7,2736.2l-257.2,0H7652h-0.7c-37.5,0-67.8,30.4-67.8,67.8v0.7c0,0,0,0,0,0l0,0h0v188.2
			c45.3,0,82-36.7,82-82v-94.2c1-4.2,5.1-10.8,20.7-11.9h207.6c15.3,1.2,15.4,15.4,15.4,15.4s-0.2,14.2-15.4,15.4l-134.2,0
			c-37.8,0-68.5,30.7-68.5,68.5h231.7c37.3,0,67.6-29.8,68.5-66.9h0v-32.5l0,0v-5.1h-0.2C7988.4,2764.1,7958.8,2736.2,7922.7,2736.2
			z"/>
		<path class="st0" d="M8085.3,2736.2h-2.9c-37.5,0-67.8,30.4-67.8,67.8v188.7c45.3,0,82-36.7,82-82v-94.8
			c1.5-4.6,6.9-11.2,25.4-11.2h148.4c37.8,0,68.5-30.7,68.5-68.5l-242.3,0H8085.3z"/>
		<path class="st0" d="M8719.9,2765c-4.5-16.6-19.6-28.8-37.6-28.8h-4.2c0,0,0,0,0,0h-23.8v0h-254.1c-21.5,0-39,17.4-39,39v29.5
			h267.7c18.4,0,23.9,6.5,25.4,11.1v96.6c-1.3,4.6-6.4,11.8-25.4,11.8h25.4l-199.5,0c-19.1,0-24-7.4-25.1-11.9v-31.4
			c0-24.7-20-44.8-44.8-44.8h-23.8l0,111.9c0,24.7,20,44.8,44.8,44.8h23.8v0h224.6h5h18.7c24.7,0,44.8-20,44.8-44.8v-167
			C8722.9,2775.3,8721.8,2769.9,8719.9,2765z"/>
		<path class="st0" d="M9084.3,2736.3H8827v-0.1h-14.2c-37.5,0-67.8,30.4-67.8,67.8v188.9c45.3,0,82-36.7,82-82v-93.7
			c0.8-4.1,4.7-11.2,20.8-12.3h207.6c11,0.9,14.2,8.5,15.1,12.7c-0.9,4.2-4,11.8-15.1,12.7h-134.2c-37.8,0-68.5,30.7-68.5,68.5
			l202.7,0c11.1,0.9,14.2,8.7,15.1,12.8c-0.9,4.2-3.9,12-15.1,12.8h-153.8c-37.8,0-68.5,30.7-68.5,68.5l0,0l251.3,0
			c36.5,0,66.3-28.6,68.4-64.6h0.1v-23.8c0-14.1-3.6-27.4-9.8-39c5.6-9.2,9-19.8,9.7-31.2h0.1v-4.2v-30.5h-0.2
			C9150,2764.2,9120.4,2736.3,9084.3,2736.3z"/>
		<path class="st0" d="M9430.8,2924.2H9257v-106c0-45.3-36.7-82-82-82l0,0v188.7c0,37.5,30.4,67.8,67.8,67.8h2.9h11.3h242.3
			C9499.3,2954.9,9468.6,2924.2,9430.8,2924.2z"/>
		<path class="st0" d="M9860.3,2736.2l-257.3,0v-0.1h-14.2c-37.5,0-67.8,30.4-67.8,67.8v106.8c0,44.1,34.8,80,78.4,81.9v0.1h3.6l0,0
			l257.3,0c37.8,0,68.5-30.7,68.5-68.5l0,0h-300.3c-20.1,0-24.6-7.9-25.5-12.5V2817c0.8-4.1,4.7-11.2,20.8-12.3l207.6,0
			c11,0.9,14.2,8.5,15.1,12.7c-0.9,4.2-4,11.8-15.1,12.7h-134.2c-37.8,0-68.5,30.7-68.5,68.5v0h231.7c35.4,0,64.6-26.9,68.1-61.4
			h0.4v-7.1v0v-25.4l0,0v-5.1h-0.2C9926,2764.1,9896.4,2736.2,9860.3,2736.2z"/>
		<path class="st0" d="M10297.8,2736.2c-1.5-0.1-2.9-0.1-4.4-0.1v0.1h-95.4c-9.8,0-19.1,2.1-27.6,5.8c-8.4-3.7-17.6-5.7-27.4-5.7
			h-8.5c-1.7-0.1-3.4-0.2-5.1-0.2v0.2h-110.4c-10.5,0-20.4,2.4-29.3,6.6c-9.4-4.3-19.8-6.7-30.8-6.7l-8.5,0v188.7
			c0,37.5,30.4,67.8,67.8,67.8h14.2l0-174.6c1.7-5.7,7.1-13.2,23.7-13.2h48.8c20.8,0,24,11.8,24.4,17.1v-17.1h0.1v187.8
			c41,0,74.3-33.3,74.3-74.3v-100.1c1.2-4.9,5.1-11.6,16.8-13.5l49,0c20.1,0.3,23.2,11.9,23.6,17v-17h0.1v187.9
			c41,0,74.3-33.3,74.3-74.3v-107.9c0-18.4-6.7-35.3-17.8-48.2C10337.6,2746.7,10318.9,2736.7,10297.8,2736.2z"/>
		<path class="st0" d="M10129.5,2821.9v2.5C10129.5,2824.3,10129.6,2823.4,10129.5,2821.9z"/>
		<path class="st0" d="M10293.3,2821.8v2.5C10293.3,2824.2,10293.5,2823.3,10293.3,2821.8z"/>
	</g>
	<path d="M15371.1,1995.7c-11.2-151.3-137.6-270.7-291.8-270.7l-1226.5,0v-0.1h-75.8c-2.8,0-5.6,0-8.4,0.1h-5.8
		c-161.6,0-292.6,131-292.6,292.6v0h0.3c-0.2,4.7-0.3,9.4-0.3,14.1v381.2c-9.7,48.6-53.3,85.2-105.7,85.2c-12.5,0-24.4-2.2-35.4-6.1
		l-1120.6-675.7c-74.9-45.2-165.6-75.6-259.8-91.1c-9.2,0-18.8-0.1-29.2-0.1c-1.7,0-3.3,0-5,0v0l0,0
		c-113.6,0-215.6,49.5-285.7,128.1c-4.4,4.6-6.6,7.3-6.6,7.3h0l0.2,0.1c-56.4,66.7-90.5,152.9-90.5,247.1v714.1h0
		c211.3,0,382.6-171.3,382.6-382.6v-253.4c0-50.5,36.7-91.5,82-91.5c5.7,0,11.2,0.7,16.6,2l1032.4,622.5
		c118.3,71.3,275.8,106.1,424.7,102.5v0.4h0c211.3,0,382.6-171.3,382.6-382.6v-370.5c4.7-17.9,23.7-46.1,96.3-50.8l968.2,0
		c71.3,5.1,72,65.9,72,65.9s-0.7,60.8-72,65.9l-652.9,0c-161.6,0-292.6,131-292.6,292.6v0l1107.5,0c159.3,0,288.9-127.4,292.5-285.8
		h0.1v-6.8v0v-131.9v0v-22H15371.1z"/>
	<path class="st0" d="M15371.1,3655c-11.2-151.3-137.6-270.7-291.8-270.7l-1226.5,0v-0.1h-75.8c-2.8,0-5.6,0-8.4,0.1h-5.8
		c-161.6,0-292.6,131-292.6,292.6v0h0.3c-0.2,4.7-0.3,9.4-0.3,14.1v381.2c-9.7,48.6-53.3,85.2-105.7,85.2c-12.5,0-24.4-2.2-35.4-6.1
		l-1120.6-675.7c-74.9-45.2-165.6-75.6-259.8-91.1c-9.2,0-18.8-0.1-29.2-0.1c-1.7,0-3.3,0-5,0v0l0,0
		c-113.6,0-215.6,49.5-285.7,128.1c-4.4,4.6-6.6,7.3-6.6,7.3h0l0.2,0.1c-56.4,66.7-90.5,152.9-90.5,247.1v714.1h0
		c211.3,0,382.6-171.3,382.6-382.6v-253.4c0-50.5,36.7-91.5,82-91.5c5.7,0,11.2,0.7,16.6,2l1032.4,622.5
		c118.3,71.3,275.8,106.1,424.7,102.5v0.4h0c211.3,0,382.6-171.3,382.6-382.6v-370.5c4.7-17.9,23.7-46.1,96.3-50.8l968.2,0
		c71.3,5.1,72,65.9,72,65.9s-0.7,60.8-72,65.9l-652.9,0c-161.6,0-292.6,131-292.6,292.6v0l1107.5,0c159.3,0,288.9-127.4,292.5-285.8
		h0.1v-6.8v0V3677l0,0v-22H15371.1z"/>
</g>
<g id="Layer_2">
	<rect id="background" x="-421.2" y="-2642.9" class="st1" width="9200.5" height="4027.5"/>
	<path d="M3647.8-1618.7c-4.1-55.2-50.2-98.7-106.4-98.7l-447.3,0v0h-27.6c-1,0-2,0-3,0h-2.1c-58.9,0-106.7,47.8-106.7,106.7v0h0.1
		c-0.1,1.7-0.1,3.4-0.1,5.1v139c-3.5,17.7-19.4,31.1-38.5,31.1c-4.5,0-8.9-0.8-12.9-2.2l-408.7-246.4
		c-27.3-16.5-60.4-27.6-94.8-33.2c-3.4,0-6.9,0-10.6,0c-0.6,0-1.2,0-1.8,0v0h0c-41.4,0-78.6,18.1-104.2,46.7
		c-1.6,1.7-2.4,2.7-2.4,2.7h0l0.1,0c-20.6,24.3-33,55.8-33,90.1v260.4l0,0c77.1,0,139.5-62.5,139.5-139.5l0-92.4
		c0-18.4,13.4-33.4,29.9-33.4c2.1,0,4.1,0.3,6.1,0.7l376.5,227c43.1,26,100.6,38.7,154.9,37.4v0.1h0c77.1,0,139.5-62.5,139.5-139.5
		v-135.1c1.7-6.5,8.6-16.8,35.1-18.5l353.1,0c26,1.9,26.3,24,26.3,24s-0.3,22.2-26.3,24l-238.1,0c-58.9,0-106.7,47.8-106.7,106.7v0
		l403.9,0c58.1,0,105.4-46.4,106.7-104.2h0v-2.5v0v-48.1l0,0v-8H3647.8z"/>
	
		<text transform="matrix(1.2326 0 0 1 1749.7218 -2101.5625)" style="font-family:'FiraSans-Thin'; font-size:69.8782px; letter-spacing:3.2;">NO PROBLEM GROUP BRAND IDENTITY CASE</text>
	<g id="guide_x5F_lines">
		<rect x="2247.7" y="-1717.4" class="st2" width="1400.4" height="400"/>
		<g>
			<rect x="2047.7" y="-1917.4" class="st2" width="200" height="200"/>
			
				<text transform="matrix(1.2326 0 0 1 2132.3547 -1804.7617)" style="font-family:'FiraSans-Thin'; font-size:51.6px; letter-spacing:2.4;">x</text>
		</g>
		<g>
			<rect x="2047.7" y="-1317.4" class="st2" width="200" height="200"/>
			
				<text transform="matrix(1.2326 0 0 1 2132.3547 -1204.7618)" style="font-family:'FiraSans-Thin'; font-size:51.6px; letter-spacing:2.4;">x</text>
		</g>
		<g>
			<rect x="2047.7" y="-1717.4" class="st3" width="200" height="400"/>
			
				<text transform="matrix(1.2326 0 0 1 2116.0735 -1504.7616)" style="font-family:'FiraSans-Thin'; font-size:51.6px; letter-spacing:2.4;">2x</text>
		</g>
		<g>
			<rect x="3648.1" y="-1917.4" class="st2" width="200" height="200"/>
			
				<text transform="matrix(1.2326 0 0 1 3732.7939 -1804.7617)" style="font-family:'FiraSans-Thin'; font-size:51.6px; letter-spacing:2.4;">x</text>
		</g>
		<g>
			<rect x="3648.1" y="-1317.4" class="st2" width="200" height="200"/>
			
				<text transform="matrix(1.2326 0 0 1 3732.7939 -1204.762)" style="font-family:'FiraSans-Thin'; font-size:51.6px; letter-spacing:2.4;">x</text>
		</g>
		<g>
			<rect x="3648.1" y="-1717.4" class="st3" width="200" height="400"/>
			
				<text transform="matrix(1.2326 0 0 1 3716.5127 -1504.7616)" style="font-family:'FiraSans-Thin'; font-size:51.6px; letter-spacing:2.4;">2x</text>
		</g>
		<rect x="2247.7" y="-1917.4" class="st4" width="1400.4" height="800"/>
		<rect x="3648.1" y="-1717.4" class="st5" width="85.8" height="40"/>
		<rect x="3648.1" y="-1717.4" class="st2" width="200" height="40"/>
		
			<text transform="matrix(1.2326 0 0 1 3759.1877 -1686.853)" style="font-family:'FiraSans-Thin'; font-size:31.841px; letter-spacing:0.8;">1/5x</text>
	</g>
	<g>
		<g>
			<g>
				<path d="M3659.5-1687.5v-23.4h9.1c2.1,0,3.8,0.3,5.2,1c1.4,0.6,2.6,1.6,3.3,2.8c0.8,1.2,1.2,2.7,1.2,4.4c0,1.7-0.4,3.1-1.2,4.4
					c-0.8,1.2-1.9,2.1-3.3,2.8c-1.4,0.6-3.2,1-5.2,1h-7.3l1.5-1.5v8.7H3659.5z M3662.8-1695.9l-1.5-1.6h7.2c2.1,0,3.8-0.5,4.9-1.4
					c1.1-0.9,1.7-2.2,1.7-3.9s-0.6-3-1.7-3.9c-1.1-0.9-2.7-1.4-4.9-1.4h-7.2l1.5-1.7V-1695.9z M3675.1-1687.5l-6-8.5h3.6l6,8.5
					H3675.1z"/>
			</g>
		</g>
		<circle class="st6" cx="3668.1" cy="-1697.4" r="20"/>
	</g>
	<g>
		<path d="M1400.1,101.5C1396,46.3,1350,2.8,1293.7,2.8l-447.3,0v0l-27.6,0c-1,0-2,0-3,0l-2.1,0c-58.9,0-106.7,47.8-106.7,106.7v0
			h0.1c-0.1,1.7-0.1,3.4-0.1,5.1l0,139c-3.5,17.7-19.4,31.1-38.5,31.1c-4.5,0-8.9-0.8-12.9-2.2L246.7,36.1
			C219.4,19.6,186.3,8.5,152,2.9c-3.4,0-6.9,0-10.6,0c-0.6,0-1.2,0-1.8,0v0h0c-41.4,0-78.6,18.1-104.2,46.7
			c-1.6,1.7-2.4,2.7-2.4,2.7h0l0.1,0C12.4,76.6,0,108,0,142.3l0,260.4h0c77.1,0,139.5-62.5,139.5-139.5l0-92.4
			c0-18.4,13.4-33.4,29.9-33.4c2.1,0,4.1,0.3,6.1,0.7l376.5,227c43.1,26,100.6,38.7,154.9,37.4v0.1h0c77.1,0,139.5-62.5,139.5-139.5
			l0-135.1c1.7-6.5,8.6-16.8,35.1-18.5l353.1,0c26,1.9,26.3,24,26.3,24s-0.3,22.2-26.3,24l-238.1,0c-58.9,0-106.7,47.8-106.7,106.7
			v0l403.9,0c58.1,0,105.4-46.4,106.7-104.2h0v-2.5v0v-48.1v0v-8H1400.1z"/>
		<g>
			<g>
				<g>
					<path d="M1424.3,69.4V20.3h19.1c4.3,0,8,0.7,11,2c3,1.4,5.4,3.3,7,5.9c1.6,2.6,2.5,5.6,2.5,9.2c0,3.6-0.8,6.6-2.5,9.1
						c-1.6,2.5-4,4.5-7,5.9c-3,1.4-6.7,2-11,2h-15.3l3.2-3.2v18.2H1424.3z M1431.3,52l-3.2-3.4h15.1c4.5,0,7.9-1,10.2-2.9
						c2.3-1.9,3.5-4.7,3.5-8.2c0-3.5-1.2-6.2-3.5-8.1c-2.3-1.9-5.7-2.9-10.2-2.9h-15.1l3.2-3.5V52z M1457.1,69.4l-12.5-17.8h7.5
						l12.6,17.8H1457.1z"/>
				</g>
			</g>
			<circle class="st7" cx="1442.4" cy="44.7" r="41.9"/>
		</g>
	</g>
	<g>
		<path d="M3198.1,143.5c-4.1-55.2-50.2-98.7-106.4-98.7l-447.3,0v0l-27.6,0c-1,0-2,0-3,0h-2.1c-58.9,0-106.7,47.8-106.7,106.7v0
			h0.1c-0.1,1.7-0.1,3.4-0.1,5.1v139c-3.5,17.7-19.4,31.1-38.5,31.1c-4.5,0-8.9-0.8-12.9-2.2L2044.7,78
			c-27.3-16.5-60.4-27.6-94.8-33.2c-3.4,0-6.9,0-10.6,0c-0.6,0-1.2,0-1.8,0v0h0c-41.4,0-78.6,18.1-104.2,46.7
			c-1.6,1.7-2.4,2.7-2.4,2.7h0l0.1,0c-20.6,24.3-33,55.8-33,90.1l0,260.4h0c77.1,0,139.5-62.5,139.5-139.5l0-92.4
			c0-18.4,13.4-33.4,29.9-33.4c2.1,0,4.1,0.3,6.1,0.7l376.5,227c43.1,26,100.6,38.7,154.9,37.4v0.1l0,0
			c77.1,0,139.5-62.5,139.5-139.5V170c1.7-6.5,8.6-16.8,35.1-18.5l353.1,0c26,1.9,26.3,24,26.3,24s-0.3,22.2-26.3,24l-238.1,0
			c-58.9,0-106.7,47.8-106.7,106.7v0l403.9,0c58.1,0,105.4-46.4,106.7-104.2h0v-2.5v0v-48.1v0v-8H3198.1z"/>
		<g>
			<g>
				<g>
					<path d="M3214.1,88.6V56.3h12.6c2.8,0,5.3,0.4,7.3,1.3c2,0.9,3.5,2.2,4.6,3.9c1.1,1.7,1.6,3.7,1.6,6.1c0,2.3-0.5,4.4-1.6,6
						c-1.1,1.7-2.6,3-4.6,3.9c-2,0.9-4.4,1.3-7.3,1.3h-10.1l2.1-2.1v12H3214.1z M3218.7,77.1l-2.1-2.3h9.9c3,0,5.2-0.6,6.7-1.9
						c1.5-1.3,2.3-3.1,2.3-5.4s-0.8-4.1-2.3-5.4c-1.5-1.3-3.8-1.9-6.7-1.9h-9.9l2.1-2.3V77.1z M3235.7,88.6l-8.2-11.7h4.9l8.3,11.7
						H3235.7z"/>
				</g>
			</g>
			<circle class="st8" cx="3226" cy="72.3" r="27.6"/>
		</g>
	</g>
	<g>
		<path d="M4951.7,143.5c-4.1-55.2-50.2-98.7-106.4-98.7l-447.3,0v0l-27.6,0c-1,0-2,0-3,0h-2.1c-58.9,0-106.7,47.8-106.7,106.7v0
			h0.1c-0.1,1.7-0.1,3.4-0.1,5.1v139c-3.5,17.7-19.4,31.1-38.5,31.1c-4.5,0-8.9-0.8-12.9-2.2L3798.3,78
			c-27.3-16.5-60.4-27.6-94.8-33.2c-3.4,0-6.9,0-10.6,0c-0.6,0-1.2,0-1.8,0v0h0c-41.4,0-78.6,18.1-104.2,46.7
			c-1.6,1.7-2.4,2.7-2.4,2.7h0l0.1,0c-20.6,24.3-33,55.8-33,90.1v260.4l0,0c77.1,0,139.5-62.5,139.5-139.5l0-92.4
			c0-18.4,13.4-33.4,29.9-33.4c2.1,0,4.1,0.3,6.1,0.7l376.5,227c43.1,26,100.6,38.7,154.9,37.4v0.1l0,0
			c77.1,0,139.5-62.5,139.5-139.5V170c1.7-6.5,8.6-16.8,35.1-18.5l353.1,0c26,1.9,26.3,24,26.3,24s-0.3,22.2-26.3,24l-238.1,0
			c-58.9,0-106.7,47.8-106.7,106.7v0l403.9,0c58.1,0,105.4-46.4,106.7-104.2h0v-2.5v0v-48.1v0v-8H4951.7z"/>
		<g>
			<g>
				<g>
					<path d="M4963.8,77.7V53.4h9.5c2.1,0,3.9,0.3,5.4,1c1.5,0.7,2.7,1.6,3.5,2.9c0.8,1.3,1.2,2.8,1.2,4.5c0,1.8-0.4,3.3-1.2,4.5
						c-0.8,1.3-2,2.2-3.5,2.9c-1.5,0.7-3.3,1-5.4,1h-7.6l1.6-1.6v9H4963.8z M4967.3,69l-1.6-1.7h7.5c2.2,0,3.9-0.5,5-1.4
						c1.1-1,1.7-2.3,1.7-4s-0.6-3.1-1.7-4c-1.1-0.9-2.8-1.4-5-1.4h-7.5l1.6-1.7V69z M4980,77.7l-6.2-8.8h3.7l6.2,8.8H4980z"/>
				</g>
			</g>
			<circle class="st9" cx="4972.7" cy="65.4" r="20.7"/>
		</g>
	</g>
</g>
</svg>
